<svg width="364" height="192" viewBox="0 0 364 192" fill="none" xmlns="http://www.w3.org/2000/svg">
<g clip-path="url(#clip0_2_8)">
<path d="M163.232 190.546C160.513 190.543 157.839 191.162 155.462 192.342H170.982C168.612 191.162 165.944 190.544 163.232 190.546Z" fill="#E6E6E6"/>
<path d="M193.349 188.749C188.808 188.744 184.377 190 180.666 192.342H206.015C202.309 190.002 197.885 188.747 193.349 188.749Z" fill="#E6E6E6"/>
<path d="M363.948 166.006C362.814 147.606 346.292 132.604 325.746 131.346C316.275 130.751 306.865 133.103 299.11 138.004C291.355 142.905 285.732 150.054 283.192 158.241C282.693 158.225 282.195 158.207 281.692 158.207C272.8 158.208 264.147 160.786 257.028 165.554C249.909 170.323 244.707 177.026 242.2 184.66C236.308 182.343 229.723 181.84 223.477 183.231C217.232 184.621 211.677 187.825 207.685 192.342H336.075C351.849 192.342 364.62 180.652 363.977 166.549C363.968 166.368 363.959 166.187 363.948 166.006Z" fill="#E6E6E6"/>
<path d="M360.613 191.962H0V192.722H360.613V191.962Z" fill="#3F3D56"/>
<path d="M120.35 68.5041C120.35 68.5041 103.983 63.9419 106.495 71.4478C109.008 78.9538 122.794 75.1623 122.794 75.1623L120.35 68.5041Z" fill="#FFB8B8"/>
<path d="M182.917 40.3311C182.917 40.3311 174.529 30.0742 166.38 40.7222C158.214 51.3911 150.622 60.1497 150.622 60.1497L130.342 66.0665L118.61 66.998L121.842 76.3319L155.955 71.9036C155.955 71.9036 193.934 51.7164 182.917 40.3311Z" fill="#2F2E41"/>
<path d="M145.477 97.1337C145.477 97.1337 132.734 105.115 133.584 112.337C134.433 119.558 139.955 139.322 139.955 139.322L151.424 137.802C151.424 137.802 152.698 122.599 148.45 116.898L168.838 106.636L145.477 97.1337Z" fill="#FFB8B8"/>
<path d="M173.723 115.947C173.723 115.947 172.873 130.01 174.997 135.711C177.121 141.412 179.245 162.696 179.245 162.696H191.138C191.138 162.696 196.659 144.073 189.863 135.711C189.863 135.711 187.74 124.689 193.686 119.368L173.723 115.947Z" fill="#FFB8B8"/>
<path d="M170.962 76.9898C170.962 76.9898 143.353 92.5728 143.353 97.5138L165.44 113.857L173.086 106.255L172.236 117.658L196.022 121.839C196.022 121.839 204.517 92.9529 204.093 91.8127C203.668 90.6724 202.394 73.9492 202.394 73.9492L170.962 76.9898Z" fill="#2F2E41"/>
<path d="M151.424 135.901L139.106 138.182L141.294 146.233C142.371 150.195 142.494 154.317 141.654 158.326C141.654 158.326 154.397 161.366 154.397 159.846C154.397 158.326 151.424 152.244 152.273 148.064C153.123 143.883 151.424 135.901 151.424 135.901Z" fill="#22668A"/>
<path d="M157.795 164.407C157.37 162.887 153.841 155.994 153.694 157.16C153.547 158.326 146.751 160.226 144.203 157.946C144.203 157.946 140.805 155.285 139.531 157.946C138.256 160.606 135.708 165.167 135.708 165.167C135.708 165.167 124.24 170.108 125.939 172.768C126.282 173.307 127.234 173.533 128.534 173.553C128.503 173.624 128.488 173.699 128.487 173.774V174.043C128.487 174.209 128.561 174.368 128.692 174.486C128.823 174.603 129.001 174.669 129.186 174.669H129.487C129.672 174.669 129.85 174.603 129.981 174.486C130.112 174.368 130.186 174.209 130.186 174.043V173.774C130.185 173.677 130.159 173.581 130.11 173.495C130.457 173.468 130.817 173.432 131.188 173.388C131.09 173.498 131.036 173.634 131.036 173.774V174.043C131.036 174.209 131.109 174.368 131.24 174.486C131.371 174.603 131.549 174.669 131.735 174.669H132.036C132.221 174.669 132.399 174.603 132.53 174.486C132.661 174.368 132.735 174.209 132.735 174.043V173.774C132.734 173.663 132.7 173.553 132.637 173.458C132.573 173.362 132.482 173.283 132.373 173.229C133.351 173.083 134.371 172.898 135.386 172.692C135.319 172.789 135.284 172.9 135.283 173.014V173.283C135.283 173.449 135.357 173.608 135.488 173.725C135.619 173.843 135.797 173.909 135.982 173.909H136.283C136.468 173.909 136.646 173.843 136.777 173.725C136.908 173.608 136.982 173.449 136.982 173.283V173.014C136.982 172.893 136.943 172.775 136.869 172.673C136.795 172.572 136.69 172.492 136.566 172.443C137.327 172.277 138.073 172.104 138.783 171.932C138.717 172.029 138.682 172.14 138.681 172.254V172.523C138.681 172.689 138.755 172.848 138.886 172.965C139.017 173.083 139.195 173.149 139.38 173.149H139.681C139.866 173.149 140.044 173.083 140.175 172.965C140.306 172.848 140.38 172.689 140.38 172.523V172.254C140.38 172.121 140.332 171.991 140.243 171.884C140.155 171.777 140.031 171.699 139.888 171.659C142.383 171.031 144.203 170.488 144.203 170.488C144.203 170.488 146.316 169.8 148.875 168.87V169.102C148.875 169.268 148.949 169.427 149.08 169.545C149.211 169.662 149.389 169.728 149.574 169.728H149.875C150.06 169.728 150.238 169.662 150.369 169.545C150.5 169.427 150.574 169.268 150.574 169.102V168.833C150.574 168.738 150.549 168.645 150.502 168.56C150.456 168.475 150.388 168.4 150.304 168.342C150.817 168.149 151.336 167.95 151.848 167.748V167.962C151.848 168.128 151.922 168.287 152.053 168.404C152.184 168.522 152.362 168.588 152.547 168.588H152.848C153.034 168.588 153.211 168.522 153.343 168.404C153.474 168.287 153.547 168.128 153.547 167.962V167.693C153.547 167.592 153.52 167.493 153.468 167.404C153.416 167.315 153.34 167.238 153.248 167.181C153.802 166.949 154.336 166.718 154.828 166.492C154.826 166.512 154.822 166.532 154.822 166.553V166.822C154.822 166.988 154.895 167.147 155.026 167.264C155.157 167.382 155.335 167.447 155.521 167.447H155.822C156.007 167.447 156.185 167.382 156.316 167.264C156.447 167.147 156.521 166.988 156.521 166.822V166.553C156.521 166.408 156.465 166.269 156.363 166.157C156.261 166.045 156.119 165.969 155.961 165.94C157.149 165.323 157.898 164.775 157.795 164.407Z" fill="#2F2E41"/>
<path d="M191.987 160.986L178.531 160.226C178.531 160.226 179.347 172.768 177.716 176.949C176.085 181.13 176.9 182.65 176.9 182.65L188.725 183.411L191.987 160.986Z" fill="#22668A"/>
<path d="M192.153 188.707C192.092 187.141 190.246 179.741 189.831 180.854C189.416 181.967 182.326 182.557 180.365 179.851C180.365 179.851 177.662 176.615 175.796 178.98C173.929 181.344 170.374 185.329 170.374 185.329C170.374 185.329 158.007 188.022 159.048 190.941C159.259 191.531 160.137 191.931 161.404 192.193C161.358 192.256 161.325 192.326 161.306 192.4L161.244 192.663C161.205 192.826 161.24 192.995 161.341 193.134C161.442 193.273 161.6 193.371 161.782 193.405L162.076 193.462C162.257 193.496 162.446 193.465 162.602 193.375C162.758 193.284 162.867 193.143 162.905 192.98L162.968 192.717C162.99 192.622 162.987 192.524 162.958 192.43C163.304 192.468 163.665 192.5 164.038 192.527C163.916 192.615 163.832 192.738 163.799 192.875L163.736 193.139C163.697 193.301 163.732 193.47 163.833 193.61C163.934 193.749 164.093 193.846 164.274 193.881L164.568 193.937C164.75 193.972 164.939 193.94 165.095 193.85C165.25 193.76 165.359 193.618 165.398 193.456L165.461 193.192C165.486 193.083 165.479 192.97 165.439 192.865C165.399 192.759 165.328 192.665 165.234 192.592C166.224 192.632 167.265 192.641 168.306 192.629C168.218 192.711 168.157 192.813 168.13 192.924L168.067 193.188C168.029 193.35 168.064 193.519 168.165 193.659C168.265 193.798 168.424 193.895 168.605 193.93L168.9 193.986C169.081 194.021 169.27 193.989 169.426 193.899C169.581 193.809 169.69 193.667 169.729 193.505L169.792 193.241C169.82 193.123 169.809 193 169.76 192.887C169.712 192.774 169.628 192.677 169.518 192.606C170.301 192.585 171.071 192.555 171.805 192.52C171.718 192.602 171.658 192.704 171.631 192.815L171.568 193.078C171.529 193.241 171.564 193.41 171.665 193.549C171.766 193.688 171.924 193.786 172.106 193.82L172.4 193.877C172.581 193.911 172.771 193.88 172.926 193.79C173.082 193.699 173.191 193.558 173.229 193.395L173.292 193.132C173.323 193.002 173.306 192.866 173.245 192.745C173.183 192.624 173.08 192.524 172.95 192.459C175.536 192.309 177.442 192.118 177.442 192.118C177.442 192.118 179.67 191.84 182.389 191.408L182.335 191.635C182.296 191.797 182.331 191.966 182.432 192.106C182.533 192.245 182.691 192.342 182.873 192.377L183.167 192.433C183.348 192.468 183.538 192.436 183.693 192.346C183.849 192.256 183.958 192.114 183.997 191.952L184.059 191.688C184.081 191.596 184.079 191.5 184.053 191.408C184.027 191.316 183.978 191.23 183.909 191.158C184.457 191.065 185.01 190.967 185.558 190.865L185.508 191.074C185.47 191.237 185.505 191.406 185.606 191.545C185.706 191.684 185.865 191.782 186.046 191.817L186.341 191.873C186.522 191.907 186.711 191.876 186.867 191.786C187.022 191.695 187.131 191.554 187.17 191.391L187.233 191.128C187.256 191.03 187.253 190.928 187.223 190.831C187.192 190.734 187.136 190.645 187.06 190.571C187.656 190.449 188.231 190.322 188.766 190.192C188.759 190.212 188.75 190.23 188.745 190.251L188.682 190.514C188.643 190.676 188.678 190.846 188.779 190.985C188.88 191.124 189.039 191.222 189.22 191.256L189.514 191.312C189.696 191.347 189.885 191.316 190.04 191.225C190.196 191.135 190.305 190.993 190.344 190.831L190.406 190.567C190.44 190.426 190.418 190.279 190.344 190.151C190.271 190.023 190.15 189.921 190.002 189.864C191.308 189.482 192.168 189.086 192.153 188.707Z" fill="#2F2E41"/>
<path d="M170.962 27.5802C177.765 27.5802 183.28 22.6454 183.28 16.558C183.28 10.4707 177.765 5.53589 170.962 5.53589C164.159 5.53589 158.644 10.4707 158.644 16.558C158.644 22.6454 164.159 27.5802 170.962 27.5802Z" fill="#FFB8B8"/>
<path d="M182.006 15.4178C182.006 15.4178 188.802 23.0193 192.2 22.6392L177.333 32.9012C177.333 32.9012 175.634 26.4399 173.511 25.6798C171.387 24.9196 182.006 15.4178 182.006 15.4178Z" fill="#FFB8B8"/>
<path d="M208.552 71.8588C208.552 71.8588 208.551 29.919 200.689 26.3062C192.831 22.6955 187.633 20.6347 187.633 20.6347C187.518 22.0109 187.08 23.35 186.35 24.5655C185.62 25.7811 184.613 26.8461 183.394 27.6916C180.789 29.4915 178.193 30.984 176.743 30.9888L176.696 30.8108L176.519 30.359L172.236 36.3219C172.236 36.3219 168.414 37.082 167.139 39.3625C166.45 40.5962 169.701 53.0159 167.776 64.2573C166.144 73.7948 159.264 82.4043 159.069 83.4511C158.739 85.2205 167.101 80.5846 170.867 78.4173C170.922 78.473 170.962 78.5101 170.962 78.5101C170.962 78.5101 168.838 79.2702 173.086 78.13C175.492 77.484 178.853 77.4482 181.314 77.5383C181.311 78.1987 181.329 78.7233 181.368 79.0802C181.793 82.881 203.031 88.202 206.004 87.0618C208.977 85.9215 208.552 71.8588 208.552 71.8588Z" fill="#2F2E41"/>
<path d="M193.686 86.3016C193.686 86.3016 180.944 96.5636 189.439 98.464C197.934 100.364 201.332 87.8219 201.332 87.8219L193.686 86.3016Z" fill="#FFB8B8"/>
<path d="M178.82 112.907C178.82 112.907 184.766 107.966 188.164 110.626C191.562 113.287 193.686 115.187 193.686 115.187C193.686 115.187 183.917 109.866 178.82 112.907Z" fill="#22668A"/>
<path d="M180.365 172.027C180.365 172.027 183.716 169.242 185.631 170.741C187.547 172.241 188.744 173.312 188.744 173.312C188.744 173.312 183.237 170.313 180.365 172.027Z" fill="#2F2E41"/>
<path d="M142.815 146.123C142.815 146.123 145.116 142.586 147.436 143.522C149.756 144.457 151.25 145.17 151.25 145.17C151.25 145.17 145.006 143.735 142.815 146.123Z" fill="#2F2E41"/>
<path d="M205.343 31.5211C201.132 23.9477 188.321 28.0782 190.403 36.3293C190.434 36.4523 190.467 36.5765 190.501 36.7019C192.695 44.5125 196.28 51.9559 201.119 58.7462L196.447 77.3698L191.35 86.8717L201.969 89.1521L215.136 60.6466C215.136 60.6466 211.504 42.6033 205.343 31.5211Z" fill="#2F2E41"/>
<path opacity="0.2" d="M199.208 59.3163L191.138 86.6816L197.934 73.7591L199.208 59.3163Z" fill="black"/>
<path d="M178.698 3.71003C178.698 3.71003 171.889 -2.70428 165.036 1.33521C158.182 5.3747 154.931 9.29868 155.603 12.0309C156.275 14.7631 158.264 18.5634 158.264 18.5634C158.264 18.5634 157.028 12.9031 162.703 12.4842C168.377 12.0654 176.218 8.70486 176.218 8.70486L181.521 18.8391C181.521 18.8391 182.271 16.4907 184.349 17.1643C186.428 17.8379 184.817 4.46133 178.698 3.71003Z" fill="#2F2E41"/>
<path d="M135.071 148.634C135.07 149.596 134.981 150.558 134.803 151.507V151.511C134.315 154.065 133.185 156.487 131.499 158.593C129.812 160.7 127.613 162.436 125.067 163.67C122.521 164.905 119.695 165.606 116.802 165.72C113.909 165.835 111.024 165.36 108.367 164.331H108.362C107.576 164.027 106.814 163.675 106.081 163.278C103.812 162.052 101.851 160.417 100.324 158.477C98.7977 156.537 97.7381 154.334 97.2126 152.009C96.9663 150.897 96.8426 149.767 96.8431 148.634C96.8431 148.117 96.8686 147.604 96.9196 147.098V147.094C97.3603 142.73 99.6565 138.684 103.334 135.79C107.012 132.896 111.791 131.376 116.685 131.543C121.578 131.711 126.214 133.552 129.634 136.689C133.054 139.825 134.999 144.016 135.066 148.398V148.402C135.071 148.482 135.071 148.554 135.071 148.634Z" fill="#22668A"/>
<path d="M120.662 142.921H112.101L107.821 136.289L110.724 131.786L110.894 131.745C114.569 130.866 118.451 130.963 122.066 132.024L122.22 132.07L124.942 136.289L120.662 142.921ZM112.592 142.161H120.172L123.961 136.289L121.647 132.702C118.288 131.749 114.698 131.658 111.284 132.439L108.802 136.289L112.592 142.161Z" fill="white"/>
<path d="M120.237 156.604H111.677L107.396 149.97L111.677 143.336H120.237L124.518 149.97L120.237 156.604ZM112.167 155.844H119.747L123.537 149.97L119.747 144.097H112.167L108.377 149.97L112.167 155.844Z" fill="white"/>
<path d="M115.957 166.117C113.287 166.122 110.645 165.632 108.197 164.679L107.761 164.51L112.101 157.778H120.662L124.819 164.222L124.406 164.4C121.771 165.536 118.882 166.123 115.957 166.117ZM108.975 164.147C111.311 164.988 113.812 165.398 116.329 165.354C118.845 165.309 121.326 164.811 123.623 163.888L120.172 158.538H112.592L108.975 164.147Z" fill="white"/>
<path d="M134.679 149.762H126.118L121.838 143.13L126.118 136.494H130.016L130.142 136.612C133.522 139.795 135.433 144.003 135.491 148.393V148.503L134.679 149.762ZM126.608 149.002H134.188L134.64 148.303C134.558 144.195 132.781 140.259 129.65 137.254H126.609L122.819 143.13L126.608 149.002Z" fill="white"/>
<path d="M126 163.64L121.838 157.193L126.118 150.557H134.678L135.228 151.405L135.222 151.575C134.758 153.995 133.73 156.301 132.206 158.343C130.682 160.385 128.695 162.118 126.374 163.428L126 163.64ZM122.819 157.193L126.291 162.57C128.394 161.32 130.194 159.701 131.58 157.812C132.967 155.923 133.912 153.803 134.359 151.579L134.189 151.317H126.609L122.819 157.193Z" fill="white"/>
<path d="M106.233 163.804L105.862 163.603C103.542 162.349 101.539 160.677 99.9784 158.694C98.418 156.711 97.3344 154.46 96.7962 152.083L96.7647 151.943L97.6598 150.557H106.221L110.501 157.193L106.233 163.804ZM97.6613 152.074C98.1772 154.256 99.1745 156.324 100.595 158.157C102.015 159.99 103.83 161.551 105.933 162.748L109.52 157.193L105.73 151.317H98.1501L97.6613 152.074Z" fill="white"/>
<path d="M106.22 149.002H97.66L96.4949 147.2V147.098C96.9142 142.791 99.1076 138.777 102.649 135.836L102.771 135.734H106.221L110.501 142.37L106.22 149.002ZM98.1499 148.242H105.73L109.52 142.37L105.73 136.494H103.107C99.8296 139.261 97.7859 142.999 97.3548 147.012L98.1499 148.242Z" fill="white"/>
</g>
<defs>
<clipPath id="clip0_2_8">
<rect width="364" height="194" fill="white"/>
</clipPath>
</defs>
</svg>
