<svg width="173" height="107" viewBox="0 0 173 107" fill="none" xmlns="http://www.w3.org/2000/svg">
<path d="M103.677 12.3225C101.364 9.99014 98.6098 8.14 95.5759 6.87922C92.5419 5.61843 89.288 4.97205 86.0025 4.9775C82.7163 4.97236 79.4617 5.61886 76.427 6.87961C73.3923 8.14036 70.6377 9.99032 68.3225 12.3225C58.575 22.0675 58.575 37.93 68.3225 47.6775C70.6377 50.0103 73.3927 51.8607 76.4279 53.1215C79.4631 54.3822 82.7183 55.0284 86.005 55.0225C89.2903 55.0283 92.5441 54.3823 95.5781 53.1219C98.612 51.8616 101.366 50.0119 103.68 47.68C113.427 37.935 113.427 22.0725 103.677 12.3225ZM86.4525 10H85.555C85.7075 9.9975 85.8525 9.9775 86.005 9.9775C86.1575 9.9775 86.3 9.9975 86.4525 10ZM101.607 42.5H96L92.855 48.79C90.6611 49.6005 88.3414 50.0178 86.0025 50.0225C83.6593 50.0182 81.3353 49.6001 79.1375 48.7875L76 42.525H70.4125C68.3511 39.9622 66.957 36.9284 66.355 33.695L71 27.5L67.96 21.4175C68.93 19.354 70.2485 17.4731 71.8575 15.8575C74.1095 13.5976 76.8697 11.9098 79.9075 10.935L86 15L92.095 10.9375C95.1319 11.913 97.8918 13.5998 100.145 15.8575C101.752 17.4712 103.07 19.3494 104.04 21.41L101 27.5L105.645 33.695C105.046 36.918 103.659 39.9428 101.607 42.5Z" fill="#22668A"/>
<path d="M77.25 27.5L81 37.5H91L94.75 27.5L86 21.25L77.25 27.5Z" fill="#22668A"/>
<path d="M12.132 91.764C12.132 93.42 11.952 94.812 11.592 95.94C11.232 97.068 10.572 97.92 9.612 98.496C8.652 99.072 7.272 99.36 5.472 99.36C4.644 99.36 3.792 99.288 2.916 99.144C2.04 99.012 1.398 98.892 0.99 98.784L1.098 93.978C1.446 94.05 1.842 94.146 2.286 94.266C2.742 94.386 3.246 94.446 3.798 94.446C4.998 94.446 5.808 94.128 6.228 93.492C6.66 92.844 6.876 91.8 6.876 90.36V72.972H12.132V91.764ZM21.0544 90.9C21.0424 92.328 21.3844 93.462 22.0804 94.302C22.7764 95.142 23.7544 95.562 25.0144 95.562C25.9144 95.562 26.7004 95.37 27.3724 94.986C28.0564 94.602 28.5304 93.972 28.7944 93.096H33.5284C33.3244 94.416 32.7964 95.544 31.9444 96.48C31.1044 97.416 30.0844 98.13 28.8844 98.622C27.6844 99.114 26.4364 99.36 25.1404 99.36C23.2924 99.36 21.6724 98.976 20.2804 98.208C18.8884 97.428 17.8024 96.33 17.0224 94.914C16.2424 93.498 15.8524 91.83 15.8524 89.91C15.8524 88.05 16.2064 86.376 16.9144 84.888C17.6224 83.388 18.6484 82.206 19.9924 81.342C21.3484 80.466 22.9744 80.028 24.8704 80.028C26.7664 80.028 28.3564 80.43 29.6404 81.234C30.9364 82.026 31.9084 83.136 32.5564 84.564C33.2164 85.98 33.5464 87.618 33.5464 89.478V90.9H21.0544ZM21.0364 87.768H28.6324C28.6324 86.64 28.3204 85.68 27.6964 84.888C27.0724 84.096 26.1304 83.7 24.8704 83.7C24.0544 83.7 23.3584 83.898 22.7824 84.294C22.2184 84.69 21.7864 85.2 21.4864 85.824C21.1864 86.436 21.0364 87.084 21.0364 87.768ZM37.1953 99V80.388H42.2533V84.798C42.6973 83.37 43.4233 82.218 44.4313 81.342C45.4393 80.466 46.6813 80.028 48.1573 80.028C48.5533 80.028 48.8233 80.064 48.9673 80.136V85.14C48.8593 85.104 48.7273 85.08 48.5713 85.068C48.4273 85.044 48.2953 85.026 48.1753 85.014C46.0993 84.834 44.6233 85.11 43.7473 85.842C42.8833 86.574 42.4513 87.564 42.4513 88.812V99H37.1953ZM59.112 99.36C57.804 99.36 56.556 99.15 55.368 98.73C54.18 98.298 53.166 97.626 52.326 96.714C51.486 95.802 50.958 94.608 50.742 93.132H55.296C55.524 94.128 56.028 94.818 56.808 95.202C57.6 95.574 58.356 95.76 59.076 95.76C60.084 95.76 60.894 95.604 61.506 95.292C62.13 94.968 62.442 94.476 62.442 93.816C62.442 93.312 62.256 92.91 61.884 92.61C61.524 92.31 60.924 92.082 60.084 91.926L56.808 91.242C55.164 90.894 53.838 90.306 52.83 89.478C51.834 88.638 51.33 87.45 51.318 85.914C51.306 84.234 51.966 82.836 53.298 81.72C54.642 80.592 56.586 80.028 59.13 80.028C61.422 80.028 63.252 80.538 64.62 81.558C66 82.566 66.702 83.982 66.726 85.806H62.334C62.202 85.086 61.842 84.534 61.254 84.15C60.678 83.754 59.952 83.556 59.076 83.556C58.164 83.556 57.414 83.718 56.826 84.042C56.238 84.366 55.944 84.858 55.944 85.518C55.944 86.01 56.184 86.4 56.664 86.688C57.144 86.964 57.888 87.204 58.896 87.408L61.92 88.092C63.3 88.428 64.35 88.92 65.07 89.568C65.802 90.216 66.294 90.9 66.546 91.62C66.81 92.328 66.942 92.964 66.942 93.528C66.942 95.388 66.216 96.828 64.764 97.848C63.312 98.856 61.428 99.36 59.112 99.36ZM75.9749 72.99V77.724H70.8629V72.99H75.9749ZM75.9209 80.388V99H70.8989V80.388H75.9209ZM81.8716 99V72.972H90.6736C92.5336 72.972 94.1896 73.284 95.6416 73.908C97.0936 74.532 98.2336 75.456 99.0616 76.68C99.9016 77.904 100.322 79.41 100.322 81.198C100.322 82.926 99.9316 84.402 99.1516 85.626C98.3836 86.838 97.3096 87.768 95.9296 88.416C94.5496 89.052 92.9476 89.37 91.1236 89.37H85.2916V99H81.8716ZM85.2736 86.562H91.0516C92.8276 86.562 94.2736 86.064 95.3896 85.068C96.5176 84.072 97.0816 82.716 97.0816 81C97.0816 79.272 96.5056 77.964 95.3536 77.076C94.2016 76.188 92.7136 75.744 90.8896 75.744H85.2736V86.562ZM105.923 90.468C105.923 91.644 106.115 92.712 106.499 93.672C106.895 94.62 107.489 95.376 108.281 95.94C109.085 96.504 110.087 96.786 111.287 96.786C112.475 96.786 113.495 96.51 114.347 95.958C115.211 95.406 115.763 94.608 116.003 93.564H119.153C118.925 94.824 118.421 95.886 117.641 96.75C116.861 97.614 115.919 98.268 114.815 98.712C113.711 99.144 112.559 99.36 111.359 99.36C109.619 99.36 108.089 98.982 106.769 98.226C105.449 97.47 104.417 96.384 103.673 94.968C102.929 93.552 102.557 91.854 102.557 89.874C102.557 87.918 102.893 86.202 103.565 84.726C104.237 83.25 105.209 82.098 106.481 81.27C107.765 80.442 109.307 80.028 111.107 80.028C113.735 80.028 115.751 80.862 117.155 82.53C118.559 84.186 119.261 86.424 119.261 89.244V90.468H105.923ZM105.941 88.218H116.057C116.057 86.622 115.649 85.278 114.833 84.186C114.017 83.094 112.769 82.548 111.089 82.548C109.925 82.548 108.959 82.83 108.191 83.394C107.423 83.946 106.853 84.66 106.481 85.536C106.109 86.4 105.929 87.294 105.941 88.218ZM130.546 99.36C128.122 99.36 126.202 98.532 124.786 96.876C123.382 95.22 122.68 92.802 122.68 89.622C122.68 86.718 123.316 84.396 124.588 82.656C125.872 80.904 127.774 80.028 130.294 80.028C131.47 80.028 132.472 80.22 133.3 80.604C134.14 80.988 134.812 81.438 135.316 81.954C135.832 82.47 136.192 82.932 136.396 83.34V72.252H139.744V99H137.206L136.846 95.184C136.69 95.664 136.396 96.234 135.964 96.894C135.532 97.554 134.884 98.13 134.02 98.622C133.156 99.114 131.998 99.36 130.546 99.36ZM131.14 96.804C133.024 96.804 134.368 96.234 135.172 95.094C135.988 93.942 136.396 92.064 136.396 89.46C136.372 87.288 135.964 85.608 135.172 84.42C134.38 83.22 133.06 82.62 131.212 82.62C129.688 82.62 128.44 83.166 127.468 84.258C126.508 85.338 126.028 87.072 126.028 89.46C126.028 91.788 126.46 93.594 127.324 94.878C128.2 96.162 129.472 96.804 131.14 96.804ZM149.16 72.99V76.446H145.758V72.99H149.16ZM149.088 80.388V99H145.866V80.388H149.088ZM160.093 99.36C158.281 99.36 156.805 98.886 155.665 97.938C154.525 96.99 153.955 95.664 153.955 93.96C153.955 91.896 154.675 90.36 156.115 89.352C157.555 88.344 159.865 87.804 163.045 87.732L166.375 87.642V86.184C166.375 85.044 166.027 84.144 165.331 83.484C164.647 82.812 163.591 82.476 162.163 82.476C161.095 82.488 160.153 82.746 159.337 83.25C158.521 83.742 157.999 84.54 157.771 85.644H154.837C154.933 83.832 155.641 82.446 156.961 81.486C158.281 80.514 160.069 80.028 162.325 80.028C164.749 80.028 166.561 80.538 167.761 81.558C168.973 82.578 169.579 84.06 169.579 86.004V99H166.735L166.501 95.508C165.769 96.96 164.851 97.968 163.747 98.532C162.643 99.084 161.425 99.36 160.093 99.36ZM161.101 96.966C161.929 96.966 162.745 96.768 163.549 96.372C164.365 95.976 165.037 95.472 165.565 94.86C166.093 94.236 166.363 93.576 166.375 92.88V89.694L163.603 89.748C161.467 89.784 159.865 90.102 158.797 90.702C157.729 91.29 157.195 92.268 157.195 93.636C157.195 94.692 157.555 95.514 158.275 96.102C159.007 96.678 159.949 96.966 161.101 96.966Z" fill="#22668A"/>
</svg>
