<svg width="40" height="40" viewBox="0 0 40 40" fill="none" xmlns="http://www.w3.org/2000/svg">
<g id="bi:arrow-left">
<g id="Group">
<path id="Vector" fill-rule="evenodd" clip-rule="evenodd" d="M37.5 20C37.5 19.6685 37.3683 19.3505 37.1339 19.1161C36.8994 18.8817 36.5815 18.75 36.25 18.75H6.76748L14.635 10.885C14.7512 10.7688 14.8434 10.6308 14.9063 10.479C14.9692 10.3271 15.0016 10.1644 15.0016 9.99999C15.0016 9.83563 14.9692 9.67288 14.9063 9.52103C14.8434 9.36919 14.7512 9.23121 14.635 9.11499C14.5188 8.99877 14.3808 8.90658 14.2289 8.84368C14.0771 8.78079 13.9143 8.74841 13.75 8.74841C13.5856 8.74841 13.4229 8.78079 13.271 8.84368C13.1192 8.90658 12.9812 8.99877 12.865 9.11499L2.86498 19.115C2.74857 19.2311 2.65621 19.369 2.59319 19.5209C2.53018 19.6728 2.49774 19.8356 2.49774 20C2.49774 20.1644 2.53018 20.3272 2.59319 20.4791C2.65621 20.6309 2.74857 20.7689 2.86498 20.885L12.865 30.885C12.9812 31.0012 13.1192 31.0934 13.271 31.1563C13.4229 31.2192 13.5856 31.2516 13.75 31.2516C13.9143 31.2516 14.0771 31.2192 14.2289 31.1563C14.3808 31.0934 14.5188 31.0012 14.635 30.885C14.7512 30.7688 14.8434 30.6308 14.9063 30.479C14.9692 30.3271 15.0016 30.1644 15.0016 30C15.0016 29.8356 14.9692 29.6729 14.9063 29.521C14.8434 29.3692 14.7512 29.2312 14.635 29.115L6.76748 21.25H36.25C36.5815 21.25 36.8994 21.1183 37.1339 20.8839C37.3683 20.6495 37.5 20.3315 37.5 20Z" fill="black"/>
</g>
</g>
</svg>
