<svg width="30" height="30" viewBox="0 0 30 30" fill="none" xmlns="http://www.w3.org/2000/svg">
<g id="clarity:shopping-cart-solid">
<path id="Vector" d="M11.25 26.6667C12.4006 26.6667 13.3334 25.7339 13.3334 24.5833C13.3334 23.4327 12.4006 22.5 11.25 22.5C10.0994 22.5 9.16669 23.4327 9.16669 24.5833C9.16669 25.7339 10.0994 26.6667 11.25 26.6667Z" fill="white"/>
<path id="Vector_2" d="M22.0833 26.6667C23.2339 26.6667 24.1667 25.7339 24.1667 24.5833C24.1667 23.4327 23.2339 22.5 22.0833 22.5C20.9327 22.5 20 23.4327 20 24.5833C20 25.7339 20.9327 26.6667 22.0833 26.6667Z" fill="white"/>
<path id="Vector_3" d="M27.5833 5.32494C27.5057 5.22409 27.406 5.14237 27.2919 5.08603C27.1777 5.0297 27.0522 5.00025 26.925 4.99994H7.67497L7.29997 3.80827C7.25878 3.68032 7.18724 3.56423 7.09147 3.46991C6.9957 3.37559 6.87854 3.30584 6.74997 3.26661L3.3333 2.21661C3.22825 2.18432 3.11786 2.17305 3.00844 2.18343C2.89903 2.1938 2.79273 2.22563 2.69561 2.27709C2.49948 2.38102 2.35267 2.5586 2.28747 2.77077C2.22227 2.98295 2.24403 3.21233 2.34795 3.40846C2.45188 3.60459 2.62946 3.75141 2.84164 3.81661L5.8333 4.73327L9.64997 16.7916L8.29164 17.9083L8.1833 18.0166C7.84738 18.4056 7.65707 18.8992 7.64491 19.413C7.63274 19.9268 7.7995 20.4288 8.11664 20.8333C8.34377 21.1095 8.63239 21.3287 8.95942 21.4734C9.28644 21.6181 9.6428 21.6843 9.99997 21.6666H23.9083C24.1293 21.6666 24.3413 21.5788 24.4976 21.4225C24.6538 21.2662 24.7416 21.0543 24.7416 20.8333C24.7416 20.6123 24.6538 20.4003 24.4976 20.244C24.3413 20.0877 24.1293 19.9999 23.9083 19.9999H9.86664C9.77068 19.9967 9.67718 19.9687 9.59518 19.9187C9.51319 19.8688 9.44546 19.7985 9.39855 19.7147C9.35163 19.631 9.32712 19.5365 9.32737 19.4405C9.32761 19.3445 9.35262 19.2501 9.39997 19.1666L11.4083 17.4999H24.2666C24.457 17.5055 24.6435 17.4457 24.7951 17.3304C24.9468 17.2152 25.0543 17.0515 25.1 16.8666L27.7666 6.03327C27.792 5.90904 27.7886 5.78066 27.7569 5.65791C27.7251 5.53516 27.6657 5.42128 27.5833 5.32494Z" fill="white"/>
</g>
</svg>
