<svg width="29" height="29" viewBox="0 0 29 29" fill="none" xmlns="http://www.w3.org/2000/svg">
<path d="M14.5 5.4375C16.3737 5.4375 17.9387 3.9773 18.125 2.15234C18.142 1.98242 17.9551 1.8125 17.7852 1.8125C17.6933 1.81259 17.6022 1.82988 17.5167 1.86348C17.5054 1.86801 16.3216 2.32227 14.5 2.32227C12.6785 2.32227 11.4924 1.86914 11.4833 1.86348C11.3868 1.82989 11.2853 1.81267 11.1831 1.8125H11.1797C11.1374 1.81474 11.0959 1.82532 11.0577 1.84363C11.0194 1.86193 10.9852 1.88761 10.9568 1.91918C10.9285 1.95075 10.9067 1.9876 10.8927 2.02761C10.8787 2.06762 10.8726 2.11001 10.875 2.15234C11.0648 3.97391 12.6309 5.4375 14.5 5.4375Z" fill="#22668A"/>
<path d="M27.4871 5.09191L20.1641 2.52836C20.1327 2.51742 20.0993 2.5135 20.0663 2.51689C20.0333 2.52028 20.0014 2.53089 19.9729 2.54796C19.9444 2.56504 19.92 2.58817 19.9015 2.61571C19.8829 2.64325 19.8707 2.67453 19.8656 2.70734C19.6537 3.97669 18.9985 5.12976 18.0164 5.96147C17.0344 6.79318 15.7892 7.24962 14.5023 7.24962C13.2153 7.24962 11.9701 6.79318 10.9881 5.96147C10.006 5.12976 9.35083 3.97669 9.13895 2.70734C9.13398 2.67399 9.12163 2.64216 9.1028 2.61419C9.08396 2.58621 9.05912 2.5628 9.03008 2.54565C9.00105 2.5285 8.96855 2.51804 8.93496 2.51505C8.90137 2.51206 8.86753 2.51661 8.83592 2.52836L1.51286 5.09191C1.30789 5.16366 1.1355 5.30663 1.02708 5.49479C0.918651 5.68295 0.881397 5.90379 0.922096 6.11711L1.86403 11.1015C1.90028 11.2915 1.99636 11.4649 2.13822 11.5963C2.28008 11.7278 2.46028 11.8104 2.65247 11.8321L5.42106 12.1448C5.53408 12.1575 5.63817 12.2123 5.71267 12.2983C5.78717 12.3842 5.82663 12.495 5.82321 12.6087L5.40803 26.2534C5.40253 26.4293 5.44834 26.6029 5.53986 26.7532C5.63139 26.9035 5.76468 27.0238 5.92346 27.0996C6.05545 27.1593 6.19891 27.1892 6.34374 27.1874H22.6562C22.8011 27.1892 22.9445 27.1593 23.0765 27.0996C23.2353 27.0238 23.3686 26.9035 23.4601 26.7532C23.5516 26.6029 23.5974 26.4293 23.5919 26.2534L23.1768 12.6087C23.1733 12.495 23.2128 12.3842 23.2873 12.2983C23.3618 12.2123 23.4659 12.1575 23.5789 12.1448L26.3475 11.8321C26.5397 11.8104 26.7199 11.7278 26.8618 11.5963C27.0036 11.4649 27.0997 11.2915 27.1359 11.1015L28.0779 6.11711C28.1186 5.90379 28.0813 5.68295 27.9729 5.49479C27.8645 5.30663 27.6921 5.16366 27.4871 5.09191Z" fill="#22668A"/>
</svg>
