<svg width="31" height="31" viewBox="0 0 31 31" fill="none" xmlns="http://www.w3.org/2000/svg">
<path d="M28.6538 15.288L16.1842 2.82749C16.0944 2.73753 15.9877 2.66616 15.8703 2.61746C15.7529 2.56877 15.6271 2.5437 15.5 2.5437C15.3729 2.5437 15.247 2.56877 15.1296 2.61746C15.0122 2.66616 14.9056 2.73753 14.8158 2.82749L2.34618 15.288C1.9829 15.6513 1.77704 16.1448 1.77704 16.6594C1.77704 17.7281 2.64589 18.5969 3.71454 18.5969H5.02841V27.4882C5.02841 28.0241 5.46132 28.457 5.99716 28.457H13.5625V21.6757H16.9531V28.457H25.0028C25.5387 28.457 25.9716 28.0241 25.9716 27.4882V18.5969H27.2854C27.8001 18.5969 28.2935 18.3941 28.6568 18.0278C29.4106 17.2709 29.4106 16.0449 28.6538 15.288Z" fill="white"/>
</svg>
