<svg width="31" height="31" viewBox="0 0 31 31" fill="none" xmlns="http://www.w3.org/2000/svg">
<path d="M15.5 5.8125C17.5029 5.8125 19.1758 4.2516 19.375 2.30078C19.3932 2.11914 19.1933 1.9375 19.0117 1.9375C18.9135 1.9376 18.8161 1.95608 18.7247 1.99199C18.7126 1.99684 17.4472 2.48242 15.5 2.48242C13.5528 2.48242 12.285 1.99805 12.2753 1.99199C12.1721 1.95609 12.0636 1.93768 11.9544 1.9375H11.9507C11.9055 1.9399 11.8611 1.95121 11.8202 1.97077C11.7793 1.99034 11.7427 2.01779 11.7125 2.05154C11.6822 2.08528 11.6589 2.12467 11.6439 2.16744C11.6289 2.21021 11.6225 2.25552 11.625 2.30078C11.8278 4.24797 13.5019 5.8125 15.5 5.8125Z" fill="white"/>
<path d="M29.3828 5.44327L21.5547 2.70292C21.5211 2.69122 21.4855 2.68704 21.4502 2.69066C21.4148 2.69428 21.3808 2.70562 21.3503 2.72388C21.3199 2.74213 21.2938 2.76685 21.274 2.79629C21.2542 2.82574 21.241 2.85918 21.2356 2.89425C21.0091 4.25114 20.3087 5.48373 19.2589 6.3728C18.2091 7.26187 16.8781 7.74979 15.5024 7.74979C14.1267 7.74979 12.7956 7.26187 11.7459 6.3728C10.6961 5.48373 9.99569 4.25114 9.76921 2.89425C9.7639 2.85859 9.75069 2.82457 9.73056 2.79467C9.71042 2.76477 9.68387 2.73974 9.65283 2.7214C9.62179 2.70307 9.58705 2.6919 9.55114 2.6887C9.51524 2.6855 9.47907 2.69036 9.44528 2.70292L1.61718 5.44327C1.39807 5.51997 1.2138 5.6728 1.09789 5.87394C0.98199 6.07507 0.942167 6.31114 0.985673 6.53917L1.99257 11.8673C2.03132 12.0704 2.13402 12.2557 2.28567 12.3963C2.43731 12.5368 2.62994 12.6251 2.83538 12.6484L5.79491 12.9826C5.91572 12.9962 6.02699 13.0547 6.10663 13.1466C6.18627 13.2385 6.22845 13.3569 6.22479 13.4784L5.78098 28.0642C5.7751 28.2522 5.82407 28.4378 5.92191 28.5984C6.01974 28.7591 6.16223 28.8877 6.33196 28.9688C6.47305 29.0325 6.62641 29.0645 6.78122 29.0626H24.2187C24.3735 29.0645 24.5269 29.0325 24.668 28.9688C24.8377 28.8877 24.9802 28.7591 25.078 28.5984C25.1759 28.4378 25.2248 28.2522 25.219 28.0642L24.7751 13.4784C24.7715 13.3569 24.8137 13.2385 24.8933 13.1466C24.9729 13.0547 25.0842 12.9962 25.205 12.9826L28.1646 12.6484C28.37 12.6251 28.5626 12.5368 28.7143 12.3963C28.8659 12.2557 28.9686 12.0704 29.0074 11.8673L30.0143 6.53917C30.0578 6.31114 30.0179 6.07507 29.902 5.87394C29.7861 5.6728 29.6019 5.51997 29.3828 5.44327Z" fill="white"/>
</svg>
