<svg width="31" height="31" viewBox="0 0 31 31" fill="none" xmlns="http://www.w3.org/2000/svg">
<path d="M15.5 5.8125C17.5029 5.8125 19.1758 4.2516 19.375 2.30078C19.3932 2.11914 19.1933 1.9375 19.0117 1.9375C18.9135 1.9376 18.8161 1.95608 18.7247 1.99199C18.7126 1.99684 17.4472 2.48242 15.5 2.48242C13.5528 2.48242 12.285 1.99805 12.2753 1.99199C12.1721 1.95609 12.0636 1.93768 11.9544 1.9375H11.9507C11.9055 1.9399 11.8611 1.95121 11.8202 1.97077C11.7793 1.99034 11.7427 2.01779 11.7125 2.05154C11.6822 2.08528 11.6589 2.12467 11.6439 2.16744C11.6289 2.21021 11.6225 2.25552 11.625 2.30078C11.8278 4.24797 13.5019 5.8125 15.5 5.8125Z" fill="white" fill-opacity="0.5"/>
<path d="M29.3828 5.44315L21.5547 2.7028C21.5211 2.6911 21.4855 2.68692 21.4502 2.69054C21.4148 2.69416 21.3808 2.7055 21.3503 2.72375C21.3199 2.74201 21.2938 2.76673 21.274 2.79617C21.2542 2.82561 21.241 2.85905 21.2356 2.89413C21.0091 4.25102 20.3087 5.48361 19.2589 6.37268C18.2091 7.26175 16.8781 7.74967 15.5024 7.74967C14.1267 7.74967 12.7956 7.26175 11.7459 6.37268C10.6961 5.48361 9.99569 4.25102 9.76921 2.89413C9.7639 2.85847 9.75069 2.82445 9.73056 2.79455C9.71042 2.76464 9.68387 2.73961 9.65283 2.72128C9.62179 2.70295 9.58705 2.69177 9.55114 2.68858C9.51524 2.68538 9.47907 2.69024 9.44528 2.7028L1.61718 5.44315C1.39807 5.51985 1.2138 5.67268 1.09789 5.87382C0.98199 6.07495 0.942167 6.31102 0.985673 6.53905L1.99257 11.8672C2.03132 12.0703 2.13402 12.2556 2.28567 12.3962C2.43731 12.5367 2.62994 12.625 2.83538 12.6482L5.79491 12.9824C5.91572 12.9961 6.02699 13.0546 6.10663 13.1465C6.18627 13.2384 6.22845 13.3568 6.22479 13.4783L5.78098 28.0641C5.7751 28.2521 5.82407 28.4377 5.92191 28.5983C6.01974 28.7589 6.16223 28.8876 6.33196 28.9686C6.47305 29.0324 6.62641 29.0644 6.78122 29.0625H24.2187C24.3735 29.0644 24.5269 29.0324 24.668 28.9686C24.8377 28.8876 24.9802 28.7589 25.078 28.5983C25.1759 28.4377 25.2248 28.2521 25.219 28.0641L24.7751 13.4783C24.7715 13.3568 24.8137 13.2384 24.8933 13.1465C24.9729 13.0546 25.0842 12.9961 25.205 12.9824L28.1646 12.6482C28.37 12.625 28.5626 12.5367 28.7143 12.3962C28.8659 12.2556 28.9686 12.0703 29.0074 11.8672L30.0143 6.53905C30.0578 6.31102 30.0179 6.07495 29.902 5.87382C29.7861 5.67268 29.6019 5.51985 29.3828 5.44315Z" fill="white" fill-opacity="0.5"/>
</svg>
