<svg width="20" height="29" viewBox="0 0 20 29" fill="none" xmlns="http://www.w3.org/2000/svg">
<g clip-path="url(#clip0_50_46)">
<path d="M13.7909 14.4445L19.4767 8.79816C20.1744 8.10528 20.1744 6.98188 19.4767 6.28844L18.2131 5.03358C17.5153 4.3407 16.3841 4.3407 15.6858 5.03358L10 10.6799L4.3142 5.03358C3.61648 4.3407 2.48523 4.3407 1.78693 5.03358L0.523295 6.28844C-0.174432 6.98132 -0.174432 8.10471 0.523295 8.79816L6.20909 14.4445L0.523295 20.0908C-0.174432 20.7837 -0.174432 21.9071 0.523295 22.6005L1.78693 23.8554C2.48466 24.5482 3.61648 24.5482 4.3142 23.8554L10 18.2091L15.6858 23.8554C16.3835 24.5482 17.5153 24.5482 18.2131 23.8554L19.4767 22.6005C20.1744 21.9076 20.1744 20.7842 19.4767 20.0908L13.7909 14.4445Z" fill="#DF0000"/>
</g>
<defs>
<clipPath id="clip0_50_46">
<rect width="20" height="28.8889" fill="white"/>
</clipPath>
</defs>
</svg>
