<svg width="29" height="29" viewBox="0 0 29 29" fill="none" xmlns="http://www.w3.org/2000/svg">
<path d="M24.9399 21.5624L18.4474 15.0699C19.4549 13.7675 19.9999 12.175 19.9999 10.5C19.9999 8.49498 19.2174 6.61498 17.8024 5.19749C16.3874 3.78 14.5025 3 12.5 3C10.4975 3 8.61248 3.7825 7.19749 5.19749C5.78 6.61248 5 8.49498 5 10.5C5 12.5025 5.7825 14.3874 7.19749 15.8024C8.61248 17.2199 10.495 17.9999 12.5 17.9999C14.175 17.9999 15.765 17.4549 17.0674 16.4499L23.5599 22.9399C23.579 22.959 23.6016 22.9741 23.6264 22.9844C23.6513 22.9947 23.678 23 23.7049 23C23.7318 23 23.7585 22.9947 23.7834 22.9844C23.8083 22.9741 23.8309 22.959 23.8499 22.9399L24.9399 21.8524C24.959 21.8334 24.9741 21.8108 24.9844 21.7859C24.9947 21.761 25 21.7343 25 21.7074C25 21.6805 24.9947 21.6538 24.9844 21.6289C24.9741 21.6041 24.959 21.5815 24.9399 21.5624ZM16.46 14.46C15.4 15.5174 13.995 16.0999 12.5 16.0999C11.005 16.0999 9.59998 15.5174 8.53998 14.46C7.48249 13.4 6.89999 11.995 6.89999 10.5C6.89999 9.00497 7.48249 7.59748 8.53998 6.53998C9.59998 5.48249 11.005 4.89999 12.5 4.89999C13.995 4.89999 15.4025 5.47999 16.46 6.53998C17.5174 7.59998 18.0999 9.00497 18.0999 10.5C18.0999 11.995 17.5174 13.4025 16.46 14.46Z" fill="black"/>
</svg>
