<svg width="31" height="31" viewBox="0 0 31 31" fill="none" xmlns="http://www.w3.org/2000/svg">
<path d="M30.0918 16.5294L19.9199 26.7012C19.0117 27.6094 17.4375 26.9737 17.4375 25.6719V19.8594H9.20312C8.39785 19.8594 7.75 19.2116 7.75 18.4063V12.5938C7.75 11.7885 8.39785 11.1407 9.20312 11.1407H17.4375V5.32819C17.4375 4.03249 19.0057 3.39069 19.9199 4.2989L30.0918 14.4708C30.6549 15.0399 30.6549 15.9602 30.0918 16.5294ZM11.625 26.3985V23.9766C11.625 23.577 11.298 23.2501 10.8984 23.2501H5.8125C4.74082 23.2501 3.875 22.3842 3.875 21.3126V9.68757C3.875 8.61589 4.74082 7.75007 5.8125 7.75007H10.8984C11.298 7.75007 11.625 7.42311 11.625 7.0235V4.60163C11.625 4.20202 11.298 3.87507 10.8984 3.87507H5.8125C2.60352 3.87507 0 6.47858 0 9.68757V21.3126C0 24.5216 2.60352 27.1251 5.8125 27.1251H10.8984C11.298 27.1251 11.625 26.7981 11.625 26.3985Z" fill="#22668A"/>
</svg>
